# xmcd
#
# Track frame offsets:
#	150
#	12687
#	26319
#	42570
#	54467
#	70288
#	86849
#	100584
#	113935
#	128250
#	140959
#	155312
#	169354
#	180531
#	195331
#
# Disc length: 2775 seconds
#
# Revision: 1
# Processed by: cddbd v1.5.2PL0 Copyright (c) Steve Scherf et al.
# Submitted via: audiograbber 1.83.01
#
DISCID=ca0ad50f
DTITLE=Reg McTaggart - Beyond the Reason
DYEAR=2006
DGENRE=Country
TTITLE0=Wait a Minute
TTITLE1=Are We Having Fun Yet?
TTITLE2=Beyond the Reason
TTITLE3=My Heart Keeps Changing My Mind
TTITLE4=Pictures and Memories
TTITLE5=There Goes
TTITLE6=Love Listens
TTITLE7=It's Time You Learned About Goodbye
TTITLE8=Foolish Pride
TTITLE9=Sure Looks Good on You
TTITLE10=Kate
TTITLE11=Walking Frame Boogie
TTITLE12=There's That Smile Again
TTITLE13=Desperately
TTITLE14=Your One and Only
EXTD=
EXTT0=
EXTT1=
EXTT2=
EXTT3=
EXTT4=
EXTT5=
EXTT6=
EXTT7=
EXTT8=
EXTT9=
EXTT10=
EXTT11=
EXTT12=
EXTT13=
EXTT14=
PLAYORDER=
